<svg width="161" height="47" viewBox="0 0 161 47" fill="none" xmlns="http://www.w3.org/2000/svg">
<g clip-path="url(#clip0_28_579)">
<path d="M23.8143 39.2024C25.4274 39.2024 26.7351 38.6468 26.7351 37.9615C26.7351 37.2762 25.4274 36.7207 23.8143 36.7207C22.2012 36.7207 20.8936 37.2762 20.8936 37.9615C20.8936 38.6468 22.2012 39.2024 23.8143 39.2024Z" fill="white"/>
<path d="M31.1934 28.1367C31.1934 22.2045 35.6156 17.8191 41.4713 17.8191C47.327 17.8191 51.7124 22.2413 51.7124 28.1367C51.7124 34.0321 47.3298 38.4543 41.4345 38.4543C35.5391 38.4543 31.1934 34.1085 31.1934 28.1367ZM48.6528 28.1367C48.6528 23.7909 45.6669 20.5416 41.4345 20.5416C37.202 20.5416 34.2558 23.8278 34.2558 28.1367C34.2558 32.4456 37.2417 35.7318 41.4345 35.7318C45.6272 35.7318 48.6528 32.5193 48.6528 28.1367Z" fill="white"/>
<path d="M56.8145 18.3121H59.6871V21.4114H59.9137C60.4038 20.6946 62.2565 17.822 66.5258 17.822C72.118 17.822 76.1238 22.0913 76.1238 28.1C76.1238 34.1086 72.3078 38.4544 66.7524 38.4544C62.6333 38.4544 60.6673 35.9982 60.027 34.7886H59.8004V46.6558H56.8145V18.3121ZM73.0642 28.1C73.0642 23.4908 70.118 20.5417 66.3388 20.5417C62.2565 20.5417 59.6871 23.9809 59.6871 28.1C59.6871 32.9358 62.7098 35.7348 66.4125 35.7348C70.1151 35.7348 73.0642 32.5987 73.0642 28.1Z" fill="white"/>
<path d="M79.7129 28.1367C79.7129 22.3178 83.9821 17.8191 89.7642 17.8191C94.0334 17.8191 97.8126 20.3886 98.8721 24.7711L95.9258 25.4511C95.3961 22.5048 92.9031 20.5387 89.8407 20.5387C85.6451 20.5387 82.8121 23.8646 82.8121 28.1339C82.8121 32.4031 85.7981 35.729 89.9172 35.729C92.9768 35.729 95.4726 33.7629 96.0023 30.8167L98.9486 31.4966C97.8919 35.8791 94.0731 38.4486 89.8039 38.4486C83.8717 38.4486 79.7129 33.9527 79.7129 28.131V28.1367Z" fill="white"/>
<path d="M102.538 28.1764C102.538 22.1309 106.317 17.822 111.909 17.822C115.992 17.822 118.031 20.468 118.598 21.4879H118.825V18.3121H121.847V34.4118C121.847 35.0152 122.224 35.3183 122.83 35.3183H123.737V37.9643H121.811C120.185 37.9643 118.978 36.7546 118.938 35.0548V34.865H118.711C118.221 35.6583 116.405 38.4544 112.136 38.4544C106.504 38.4544 102.538 34.1851 102.538 28.1764ZM118.938 28.2133C118.938 23.3378 115.915 20.5417 112.249 20.5417C108.394 20.5417 105.598 23.7146 105.598 28.2133C105.598 32.712 108.507 35.7716 112.286 35.7716C116.405 35.7716 118.938 32.3324 118.938 28.2133Z" fill="white"/>
<path d="M129.219 18.3121H132.168V21.6012H132.394C132.961 19.9382 134.887 17.822 137.76 17.822H139.046V20.8079H137.27C133.681 20.8079 132.205 23.7174 132.205 27.4597V37.9643H129.219V18.3121Z" fill="white"/>
<path d="M141.5 28.2133C141.5 21.9411 145.809 17.822 151.021 17.822C156.954 17.822 160.356 21.978 160.356 27.8733V28.9697H144.559C144.596 33.3522 147.166 35.8084 151.248 35.8084C154.007 35.8084 156.537 34.222 157.18 31.4995L160.09 32.1794C158.993 35.8452 155.744 38.4515 151.208 38.4515C145.237 38.4515 141.497 34.256 141.497 28.2104L141.5 28.2133ZM157.296 26.5503C157.107 22.4681 154.274 20.5048 151.024 20.5048C147.775 20.5048 144.865 22.8477 144.639 26.5503H157.299H157.296Z" fill="white"/>
<path d="M23.9072 37.9614C23.9072 37.9614 23.8817 18.1761 23.9072 15.3432C23.9695 8.47893 19.6663 2.08496 9.61783 3.15865C-2.14457 4.41364 -0.473134 17.1704 11.0145 17.1704C26.6438 17.1704 29.8309 2.08496 48.9958 2.08496" stroke="white" stroke-width="3.11908" stroke-miterlimit="10"/>
</g>
<defs>
<clipPath id="clip0_28_579">
<rect width="160.356" height="46.1261" fill="white" transform="translate(0 0.526855)"/>
</clipPath>
</defs>
</svg>
